# Blender v2.79 (sub 0) OBJ File: 'untitled.blend'
# www.blender.org
mtllib EntityDemon.mtl
o ___________4
v 0.100000 0.800000 0.200000
v 0.100000 1.400000 0.200000
v -0.100000 1.400000 0.200000
v -0.100000 0.800000 0.200000
v 0.100000 0.800000 -0.200000
v 0.100000 1.400000 -0.200000
v -0.100000 0.800000 -0.200000
v -0.100000 1.400000 -0.200000
vt 0.312500 0.500000
vt 0.312500 0.687500
vt 0.250000 0.687500
vt 0.250000 0.500000
vt 0.437500 0.500000
vt 0.437500 0.687500
vt 0.500000 0.500000
vt 0.500000 0.687500
vt 0.625000 0.500000
vt 0.625000 0.687500
vt 0.437500 0.687500
vt 0.437500 0.750000
vt 0.312500 0.750000
vt 0.312500 0.687500
vt 0.562500 0.687500
vt 0.562500 0.750000
vt 0.437500 0.750000
vt 0.437500 0.687500
vn 0.0000 -0.0000 1.0000
vn 1.0000 0.0000 0.0000
vn 0.0000 0.0000 -1.0000
vn -1.0000 -0.0000 0.0000
vn 0.0000 1.0000 0.0000
vn 0.0000 -1.0000 -0.0000
usemtl None
s off
f 1/1/1 2/2/1 3/3/1 4/4/1
f 5/5/2 6/6/2 2/2/2 1/1/2
f 7/7/3 8/8/3 6/6/3 5/5/3
f 4/9/4 3/10/4 8/8/4 7/7/4
f 2/11/5 6/12/5 8/13/5 3/14/5
f 5/15/6 1/16/6 4/17/6 7/18/6
o ___________7
v 0.200000 1.400000 0.200000
v 0.200000 1.800000 0.200000
v -0.200000 1.800000 0.200000
v -0.200000 1.400000 0.200000
v 0.200000 1.400000 -0.200000
v 0.200000 1.800000 -0.200000
v -0.200000 1.400000 -0.200000
v -0.200000 1.800000 -0.200000
vt 0.000000 0.750000
vt -0.000000 0.875000
vt 0.125000 0.875000
vt 0.125000 0.750000
vt 0.250000 0.750000
vt 0.250000 0.875000
vt 0.125000 0.875000
vt 0.125000 0.750000
vt 0.375000 0.750000
vt 0.375000 0.875000
vt 0.375000 0.750000
vt 0.500000 0.750000
vt 0.500000 0.875000
vt 0.375000 0.875000
vt 0.250000 0.875000
vt 0.250000 1.000000
vt 0.125000 1.000000
vt 0.375000 0.875000
vt 0.375000 1.000000
vt 0.250000 1.000000
vt 0.250000 0.875000
vn 0.0000 -0.0000 1.0000
vn 1.0000 0.0000 0.0000
vn 0.0000 0.0000 -1.0000
vn -1.0000 0.0000 0.0000
vn 0.0000 1.0000 0.0000
vn 0.0000 -1.0000 0.0000
usemtl None
s off
f 9/19/7 10/20/7 11/21/7 12/22/7
f 13/23/8 14/24/8 10/25/8 9/26/8
f 15/27/9 16/28/9 14/24/9 13/23/9
f 12/29/10 11/30/10 16/31/10 15/32/10
f 10/33/11 14/34/11 16/35/11 11/21/11
f 13/36/12 9/37/12 12/38/12 15/39/12
o ___________1
v 0.100000 -0.000000 0.200000
v 0.100000 0.800000 0.200000
v -0.099764 0.800000 0.200000
v -0.099764 -0.000000 0.200000
v 0.100000 0.000000 0.000000
v 0.100000 0.800000 0.000000
v -0.099764 0.000000 0.000000
v -0.099764 0.800000 0.000000
vt 0.062500 0.500000
vt 0.062500 0.687500
vt -0.000000 0.687500
vt 0.000000 0.500000
vt 0.125000 0.500000
vt 0.125000 0.687500
vt 0.187500 0.500000
vt 0.187500 0.687500
vt 0.250000 0.500000
vt 0.250000 0.687500
vt 0.125000 0.750000
vt 0.062500 0.750000
vt 0.125000 0.687500
vt 0.187500 0.687500
vt 0.187500 0.750000
vt 0.125000 0.750000
vn 0.0000 -0.0000 1.0000
vn 1.0000 0.0000 0.0000
vn 0.0000 0.0000 -1.0000
vn -1.0000 0.0000 0.0000
vn 0.0000 1.0000 0.0000
vn 0.0000 -1.0000 -0.0000
usemtl None
s off
f 17/40/13 18/41/13 19/42/13 20/43/13
f 21/44/14 22/45/14 18/41/14 17/40/14
f 23/46/15 24/47/15 22/45/15 21/44/15
f 20/48/16 19/49/16 24/47/16 23/46/16
f 18/41/17 22/45/17 24/50/17 19/51/17
f 21/52/18 17/53/18 20/54/18 23/55/18
o ___________5
v 0.100000 0.700000 -0.200000
v 0.100000 1.400000 -0.200000
v -0.100000 1.400000 -0.200000
v -0.100000 0.700000 -0.200000
v 0.100000 0.700000 -0.400000
v 0.100000 1.400000 -0.400000
v -0.100000 0.700000 -0.400000
v -0.100000 1.400000 -0.400000
vt 0.750000 0.500000
vt 0.750000 0.687500
vt 0.812500 0.687500
vt 0.812500 0.500000
vt 0.687500 0.500000
vt 0.687500 0.687500
vt 0.625000 0.500000
vt 0.625000 0.687500
vt 0.875000 0.687500
vt 0.875000 0.500000
vt 0.750000 0.750000
vt 0.687500 0.750000
vt 0.687500 0.687500
vt 0.750000 0.687500
vt 0.750000 0.750000
vt 0.812500 0.750000
vt 0.812500 0.687500
vn 0.0000 -0.0000 1.0000
vn 1.0000 0.0000 0.0000
vn 0.0000 0.0000 -1.0000
vn -1.0000 0.0000 0.0000
vn 0.0000 1.0000 0.0000
vn 0.0000 -1.0000 0.0000
usemtl None
s off
f 25/56/19 26/57/19 27/58/19 28/59/19
f 29/60/20 30/61/20 26/57/20 25/56/20
f 31/62/21 32/63/21 30/61/21 29/60/21
f 28/59/22 27/58/22 32/64/22 31/65/22
f 26/57/23 30/66/23 32/67/23 27/68/23
f 29/69/24 25/70/24 28/71/24 31/72/24
o ___________8
v 0.100000 1.790000 0.120000
v 0.100000 1.810000 0.120000
v 0.060000 1.810000 0.120000
v 0.060000 1.790000 0.120000
v 0.100000 1.790000 0.080000
v 0.100000 1.810000 0.080000
v 0.060000 1.790000 0.080000
v 0.060000 1.810000 0.080000
v -0.076963 2.005935 0.184121
v -0.081554 2.011425 0.176458
v -0.082159 2.002747 0.170603
v -0.077569 1.997257 0.178267
v 0.064545 1.853672 0.115268
v 0.064545 1.858126 0.083579
v 0.095455 1.866328 0.084732
v 0.095455 1.861874 0.116421
v 0.056427 1.898116 0.117691
v 0.055505 1.905052 0.093066
v 0.077691 1.917537 0.095752
v 0.078614 1.910601 0.120377
v 0.035975 1.938489 0.126680
v 0.033827 1.946349 0.107891
v 0.048386 1.960153 0.112001
v 0.050535 1.952293 0.130790
v 0.004858 1.970501 0.140990
v 0.001570 1.978167 0.126889
v 0.009963 1.991258 0.132049
v 0.013251 1.983592 0.146150
v -0.034166 1.990800 0.158873
v -0.038294 1.997562 0.148431
v -0.034520 2.008726 0.154169
v -0.030392 2.001964 0.164610
vt 0.000000 0.375000
vt 0.125000 0.375000
vt 0.125000 0.500000
vt 0.000000 0.500000
vt 0.000000 0.375000
vt 0.125000 0.375000
vt 0.125000 0.500000
vt 0.000000 0.500000
vt 0.000000 0.375000
vt 0.125000 0.375000
vt 0.125000 0.500000
vt 0.000000 0.500000
vt 0.000000 0.375000
vt 0.125000 0.375000
vt 0.125000 0.500000
vt 0.000000 0.500000
vt 0.000000 0.375000
vt 0.125000 0.375000
vt 0.125000 0.500000
vt 0.000000 0.500000
vt 0.125000 0.375000
vt 0.125000 0.500000
vt 0.000000 0.375000
vt 0.125000 0.375000
vt 0.125000 0.500000
vt 0.000000 0.500000
vt 0.000000 0.375000
vt 0.125000 0.375000
vt 0.125000 0.500000
vt 0.000000 0.500000
vt 0.000000 0.375000
vt 0.125000 0.375000
vt 0.125000 0.500000
vt 0.000000 0.500000
vt 0.000000 0.375000
vt 0.125000 0.375000
vt 0.125000 0.500000
vt 0.000000 0.500000
vt 0.000000 0.375000
vt 0.125000 0.375000
vt 0.125000 0.500000
vt 0.000000 0.500000
vt 0.000000 0.375000
vt 0.125000 0.375000
vt 0.125000 0.500000
vt 0.000000 0.500000
vt 0.000000 0.375000
vt 0.125000 0.375000
vt 0.125000 0.500000
vt 0.000000 0.500000
vt 0.000000 0.375000
vt 0.125000 0.375000
vt 0.125000 0.500000
vt 0.000000 0.500000
vt 0.000000 0.375000
vt 0.125000 0.375000
vt 0.125000 0.500000
vt 0.000000 0.500000
vt 0.000000 0.375000
vt 0.125000 0.375000
vt 0.125000 0.500000
vt 0.000000 0.500000
vt 0.000000 0.375000
vt 0.125000 0.375000
vt 0.125000 0.500000
vt 0.000000 0.500000
vt 0.000000 0.375000
vt 0.125000 0.375000
vt 0.125000 0.500000
vt 0.000000 0.500000
vt 0.000000 0.375000
vt 0.125000 0.375000
vt 0.125000 0.500000
vt 0.000000 0.500000
vt 0.000000 0.375000
vt 0.125000 0.375000
vt 0.125000 0.500000
vt 0.000000 0.500000
vt 0.000000 0.375000
vt 0.125000 0.375000
vt 0.125000 0.500000
vt 0.000000 0.500000
vt 0.000000 0.375000
vt 0.125000 0.375000
vt 0.125000 0.500000
vt 0.000000 0.500000
vt 0.000000 0.375000
vt 0.125000 0.375000
vt 0.125000 0.500000
vt 0.000000 0.500000
vt 0.000000 0.375000
vt 0.125000 0.375000
vt 0.125000 0.500000
vt 0.000000 0.500000
vt 0.000000 0.375000
vt 0.125000 0.375000
vt 0.125000 0.500000
vt 0.000000 0.500000
vt 0.000000 0.375000
vt 0.125000 0.375000
vt 0.125000 0.500000
vt 0.000000 0.500000
vt 0.000000 0.375000
vt 0.125000 0.375000
vt 0.000000 0.500000
vt 0.000000 0.375000
vt 0.125000 0.375000
vt 0.125000 0.500000
vt 0.000000 0.500000
vt 0.000000 0.375000
vt 0.125000 0.500000
vt 0.000000 0.500000
vt 0.000000 0.375000
vt 0.125000 0.375000
vt 0.125000 0.500000
vt 0.000000 0.500000
vn 0.0000 -0.0000 1.0000
vn 1.0000 -0.0000 0.0000
vn 0.0000 0.0000 -1.0000
vn -1.0000 -0.0000 0.0000
vn -0.8972 -0.2022 0.3926
vn 0.0000 -1.0000 0.0000
vn -0.9951 0.0986 0.0061
vn 0.0070 0.0793 -0.9968
vn 0.9965 0.0837 0.0052
vn -0.0262 0.0866 0.9959
vn -0.9831 -0.1819 -0.0207
vn -0.0081 0.2024 -0.9793
vn 0.9461 0.3202 0.0493
vn -0.0411 -0.0792 0.9960
vn -0.8954 -0.4369 -0.0856
vn -0.0528 0.3184 -0.9465
vn 0.8380 0.5318 0.1220
vn -0.0108 -0.2361 0.9717
vn -0.7435 -0.6438 -0.1810
vn -0.1256 0.4174 -0.9000
vn 0.6795 0.7005 0.2183
vn 0.0594 -0.3702 0.9270
vn -0.5435 -0.7850 -0.2972
vn -0.2221 0.4901 -0.8429
vn 0.4823 0.8110 0.3311
vn 0.1612 -0.4706 0.8675
vn -0.3149 -0.8495 -0.4232
vn -0.3353 0.5293 -0.7793
vn 0.2622 0.8531 0.4511
vn 0.2842 -0.5296 0.7992
usemtl None
s off
f 33/73/25 34/74/25 35/75/25 36/76/25
f 37/77/26 38/78/26 34/79/26 33/80/26
f 39/81/27 40/82/27 38/83/27 37/84/27
f 36/85/28 35/86/28 40/87/28 39/88/28
f 41/89/29 42/90/29 43/91/29 44/92/29
f 37/77/30 33/93/30 36/94/30 39/88/30
f 35/95/31 45/96/31 46/97/31 40/98/31
f 40/99/32 46/100/32 47/101/32 38/102/32
f 38/103/33 47/104/33 48/105/33 34/106/33
f 34/107/34 48/108/34 45/109/34 35/110/34
f 45/111/35 49/112/35 50/113/35 46/114/35
f 46/115/36 50/116/36 51/117/36 47/118/36
f 47/119/37 51/120/37 52/121/37 48/122/37
f 48/123/38 52/124/38 49/125/38 45/126/38
f 49/127/39 53/128/39 54/129/39 50/130/39
f 50/131/40 54/132/40 55/133/40 51/134/40
f 51/135/41 55/136/41 56/137/41 52/138/41
f 52/139/42 56/140/42 53/141/42 49/142/42
f 53/143/43 57/144/43 58/145/43 54/146/43
f 54/147/44 58/148/44 59/149/44 55/150/44
f 55/151/45 59/152/45 60/153/45 56/154/45
f 56/155/46 60/156/46 57/157/46 53/158/46
f 57/159/47 61/160/47 62/161/47 58/162/47
f 58/163/48 62/164/48 63/165/48 59/166/48
f 59/167/49 63/168/49 64/169/49 60/170/49
f 60/171/50 64/172/50 61/173/50 57/174/50
f 61/175/51 44/176/51 43/91/51 62/177/51
f 62/178/52 43/179/52 42/180/52 63/181/52
f 63/182/53 42/90/53 41/183/53 64/184/53
f 64/185/54 41/186/54 44/187/54 61/188/54
o ___________6
v 0.100000 0.700000 0.400000
v 0.100000 1.400000 0.400000
v -0.100000 1.400000 0.400000
v -0.100000 0.700000 0.400000
v 0.100000 0.700000 0.200000
v 0.100000 1.400000 0.200000
v -0.100000 0.700000 0.200000
v -0.100000 1.400000 0.200000
vt 0.687500 0.500000
vt 0.687500 0.687500
vt 0.625000 0.687500
vt 0.625000 0.500000
vt 0.750000 0.500000
vt 0.750000 0.687500
vt 0.812500 0.500000
vt 0.812500 0.687500
vt 0.875000 0.500000
vt 0.875000 0.687500
vt 0.750000 0.687500
vt 0.750000 0.750000
vt 0.687500 0.750000
vt 0.687500 0.687500
vt 0.812500 0.687500
vt 0.812500 0.750000
vt 0.750000 0.750000
vt 0.750000 0.687500
vn 0.0000 -0.0000 1.0000
vn 1.0000 0.0000 0.0000
vn 0.0000 0.0000 -1.0000
vn -1.0000 0.0000 0.0000
vn 0.0000 1.0000 0.0000
vn 0.0000 -1.0000 0.0000
usemtl None
s off
f 65/189/55 66/190/55 67/191/55 68/192/55
f 69/193/56 70/194/56 66/190/56 65/189/56
f 71/195/57 72/196/57 70/194/57 69/193/57
f 68/197/58 67/198/58 72/196/58 71/195/58
f 66/199/59 70/200/59 72/201/59 67/202/59
f 69/203/60 65/204/60 68/205/60 71/206/60
o ___________3
v 0.100000 0.000000 0.000000
v 0.100000 0.800000 0.000000
v -0.100000 0.800000 0.000000
v -0.100000 0.000000 0.000000
v 0.100000 0.000000 -0.200000
v 0.100000 0.800000 -0.200000
v -0.100000 0.000000 -0.200000
v -0.100000 0.800000 -0.200000
vt 0.062500 0.500000
vt 0.062500 0.687500
vt 0.000000 0.687500
vt 0.000000 0.500000
vt 0.125000 0.500000
vt 0.125000 0.687500
vt 0.187500 0.500000
vt 0.187500 0.687500
vt 0.250000 0.500000
vt 0.250000 0.687500
vt 0.125000 0.687500
vt 0.125000 0.750000
vt 0.187500 0.750000
vt 0.187500 0.687500
vt 1.000000 0.000000
vt 1.000000 1.000000
vt 0.000000 1.000000
vt 0.000000 0.000000
vn 0.0000 -0.0000 1.0000
vn 1.0000 -0.0000 0.0000
vn 0.0000 0.0000 -1.0000
vn -1.0000 -0.0000 0.0000
vn 0.0000 -1.0000 -0.0000
vn 0.0000 1.0000 0.0000
usemtl None
s off
f 73/207/61 74/208/61 75/209/61 76/210/61
f 77/211/62 78/212/62 74/208/62 73/207/62
f 79/213/63 80/214/63 78/212/63 77/211/63
f 76/215/64 75/216/64 80/214/64 79/213/64
f 77/217/65 73/218/65 76/219/65 79/220/65
usemtl None_NONE
f 74/221/66 78/222/66 80/223/66 75/224/66
o ___________9
v 0.100000 1.790000 -0.080000
v 0.100000 1.810000 -0.080000
v 0.060000 1.810000 -0.080000
v 0.060000 1.790000 -0.080000
v 0.100000 1.790000 -0.120000
v 0.100000 1.810000 -0.120000
v 0.060000 1.790000 -0.120000
v 0.060000 1.810000 -0.120000
v -0.081554 2.011425 -0.176458
v -0.076963 2.005935 -0.184121
v -0.077569 1.997257 -0.178267
v -0.082159 2.002747 -0.170603
v 0.064545 1.858126 -0.083579
v 0.064545 1.853672 -0.115268
v 0.095455 1.861874 -0.116421
v 0.095455 1.866328 -0.084732
v 0.055505 1.905052 -0.093066
v 0.056427 1.898116 -0.117691
v 0.078614 1.910601 -0.120377
v 0.077691 1.917537 -0.095752
v 0.033827 1.946349 -0.107891
v 0.035975 1.938489 -0.126680
v 0.050535 1.952293 -0.130790
v 0.048386 1.960153 -0.112001
v 0.001570 1.978167 -0.126889
v 0.004858 1.970501 -0.140990
v 0.013251 1.983592 -0.146150
v 0.009963 1.991258 -0.132049
v -0.038294 1.997562 -0.148431
v -0.034166 1.990800 -0.158873
v -0.030392 2.001964 -0.164610
v -0.034520 2.008726 -0.154169
vt 0.125000 0.375000
vt 0.125000 0.500000
vt 0.000000 0.500000
vt 0.000000 0.375000
vt 0.125000 0.375000
vt 0.125000 0.500000
vt 0.000000 0.500000
vt 0.000000 0.375000
vt 0.125000 0.375000
vt 0.125000 0.500000
vt 0.000000 0.500000
vt 0.000000 0.375000
vt 0.125000 0.375000
vt 0.125000 0.500000
vt 0.000000 0.500000
vt 0.000000 0.375000
vt 0.125000 0.375000
vt 0.125000 0.500000
vt 0.000000 0.500000
vt 0.000000 0.375000
vt 0.125000 0.500000
vt 0.000000 0.500000
vt 0.000000 0.375000
vt 0.125000 0.375000
vt 0.125000 0.500000
vt 0.000000 0.375000
vt 0.125000 0.375000
vt 0.125000 0.500000
vt 0.000000 0.375000
vt 0.125000 0.375000
vt 0.125000 0.500000
vt 0.000000 0.375000
vt 0.125000 0.375000
vt 0.125000 0.500000
vt 0.000000 0.375000
vt 0.125000 0.375000
vt 0.125000 0.500000
vt 0.000000 0.500000
vt 0.000000 0.375000
vt 0.125000 0.375000
vt 0.125000 0.500000
vt 0.000000 0.500000
vt 0.000000 0.375000
vt 0.125000 0.375000
vt 0.125000 0.500000
vt 0.000000 0.500000
vt 0.000000 0.375000
vt 0.125000 0.375000
vt 0.125000 0.500000
vt 0.000000 0.500000
vt 0.000000 0.375000
vt 0.125000 0.375000
vt 0.125000 0.500000
vt 0.000000 0.500000
vt 0.000000 0.375000
vt 0.125000 0.375000
vt 0.125000 0.500000
vt 0.000000 0.500000
vt 0.000000 0.375000
vt 0.125000 0.375000
vt 0.125000 0.500000
vt 0.000000 0.500000
vt 0.000000 0.375000
vt 0.125000 0.375000
vt 0.125000 0.500000
vt 0.000000 0.500000
vt 0.000000 0.375000
vt 0.125000 0.375000
vt 0.125000 0.500000
vt 0.000000 0.500000
vt 0.000000 0.375000
vt 0.125000 0.375000
vt 0.125000 0.500000
vt 0.000000 0.500000
vt 0.000000 0.375000
vt 0.125000 0.375000
vt 0.125000 0.500000
vt 0.000000 0.500000
vt 0.000000 0.375000
vt 0.125000 0.375000
vt 0.125000 0.500000
vt 0.000000 0.500000
vt 0.000000 0.375000
vt 0.125000 0.375000
vt 0.125000 0.500000
vt 0.000000 0.500000
vt 0.000000 0.375000
vt 0.125000 0.375000
vt 0.125000 0.500000
vt 0.000000 0.500000
vt 0.000000 0.375000
vt 0.125000 0.375000
vt 0.125000 0.500000
vt 0.000000 0.500000
vt 0.000000 0.375000
vt 0.125000 0.375000
vt 0.125000 0.500000
vt 0.000000 0.500000
vt 0.000000 0.375000
vt 0.125000 0.375000
vt 0.125000 0.500000
vt 0.000000 0.500000
vt 0.000000 0.375000
vt 0.125000 0.375000
vt 0.000000 0.500000
vt 0.000000 0.375000
vt 0.125000 0.375000
vt 0.125000 0.500000
vt 0.000000 0.500000
vt 0.000000 0.375000
vt 0.125000 0.500000
vt 0.000000 0.500000
vn 0.0000 -0.0000 1.0000
vn 1.0000 -0.0000 0.0000
vn 0.0000 0.0000 -1.0000
vn -1.0000 -0.0000 0.0000
vn -0.8972 -0.2022 -0.3926
vn 0.0000 -1.0000 0.0000
vn -0.9951 0.0986 -0.0061
vn -0.0262 0.0866 -0.9959
vn 0.9965 0.0837 -0.0052
vn 0.0070 0.0793 0.9968
vn -0.9831 -0.1819 0.0207
vn -0.0411 -0.0792 -0.9960
vn 0.9461 0.3202 -0.0493
vn -0.0081 0.2024 0.9793
vn -0.8954 -0.4369 0.0856
vn -0.0108 -0.2361 -0.9717
vn 0.8380 0.5318 -0.1220
vn -0.0528 0.3184 0.9465
vn -0.7435 -0.6438 0.1810
vn 0.0594 -0.3702 -0.9270
vn 0.6795 0.7005 -0.2183
vn -0.1256 0.4174 0.9000
vn -0.5435 -0.7850 0.2972
vn 0.1612 -0.4706 -0.8675
vn 0.4823 0.8110 -0.3311
vn -0.2221 0.4901 0.8429
vn -0.3149 -0.8495 0.4232
vn 0.2842 -0.5296 -0.7992
vn 0.2622 0.8531 -0.4510
vn -0.3353 0.5293 0.7793
usemtl None
s off
f 81/225/67 82/226/67 83/227/67 84/228/67
f 85/229/68 86/230/68 82/231/68 81/232/68
f 87/233/69 88/234/69 86/235/69 85/236/69
f 84/237/70 83/238/70 88/239/70 87/240/70
f 89/241/71 90/242/71 91/243/71 92/244/71
f 85/229/72 81/245/72 84/246/72 87/240/72
f 83/247/73 93/248/73 94/249/73 88/239/73
f 88/250/74 94/251/74 95/252/74 86/235/74
f 86/253/75 95/254/75 96/255/75 82/231/75
f 82/256/76 96/257/76 93/258/76 83/227/76
f 93/259/77 97/260/77 98/261/77 94/262/77
f 94/263/78 98/264/78 99/265/78 95/266/78
f 95/267/79 99/268/79 100/269/79 96/270/79
f 96/271/80 100/272/80 97/273/80 93/274/80
f 97/275/81 101/276/81 102/277/81 98/278/81
f 98/279/82 102/280/82 103/281/82 99/282/82
f 99/283/83 103/284/83 104/285/83 100/286/83
f 100/287/84 104/288/84 101/289/84 97/290/84
f 101/291/85 105/292/85 106/293/85 102/294/85
f 102/295/86 106/296/86 107/297/86 103/298/86
f 103/299/87 107/300/87 108/301/87 104/302/87
f 104/303/88 108/304/88 105/305/88 101/306/88
f 105/307/89 109/308/89 110/309/89 106/310/89
f 106/311/90 110/312/90 111/313/90 107/314/90
f 107/315/91 111/316/91 112/317/91 108/318/91
f 108/319/92 112/320/92 109/321/92 105/322/92
f 109/323/93 92/324/93 91/325/93 110/326/93
f 110/327/94 91/328/94 90/242/94 111/329/94
f 111/330/95 90/331/95 89/332/95 112/333/95
f 112/334/96 89/241/96 92/335/96 109/336/96
